<svg width="109" height="38" viewBox="0 0 145 51" fill="none" xmlns="http://www.w3.org/2000/svg">
<path fill-rule="evenodd" clip-rule="evenodd" d="M119.652 3.65239e-05C113.946 -0.00923042 108.406 1.9273 103.934 5.4936C99.4634 1.92707 93.9227 -0.00949272 88.2166 3.65239e-05C82.5109 -0.00884601 76.9706 1.92765 72.4996 5.4936C68.029 1.9269 62.4884 -0.00969849 56.7826 3.65239e-05C51.0769 -0.00884601 45.5366 1.92765 41.0656 5.4936C36.5946 1.92754 31.0543 -0.00897711 25.3485 3.65239e-05C11.3468 3.65239e-05 0 11.4138 0 25.5C0 39.5846 11.346 51 25.3485 51C31.0542 51.0088 36.5945 49.0723 41.0656 45.5064C45.5365 49.0725 51.0768 51.009 56.7826 51C62.4884 51.0096 68.0289 49.073 72.4996 45.5064C76.9706 49.0723 82.5109 51.0088 88.2166 51C93.9227 51.0094 99.4634 49.0729 103.934 45.5064C108.405 49.0729 113.946 51.0094 119.652 51C133.654 51 145 39.5854 145 25.5C145 11.4146 133.654 3.65239e-05 119.652 3.65239e-05ZM36.9181 41.3408C33.688 43.7112 29.6528 45.1578 25.3485 45.1578C14.5471 45.1578 5.80663 36.366 5.80663 25.5C5.80663 14.634 14.5471 5.84136 25.3485 5.84136C29.6528 5.84136 33.6856 7.28882 36.9181 9.66004C33.3566 14.1612 31.4229 19.7471 31.4349 25.5C31.4375 31.2507 33.3695 36.8322 36.9181 41.3408ZM41.0664 37.1802C38.5753 33.8023 37.2342 29.7059 37.2423 25.5C37.2318 21.2937 38.5732 17.1966 41.0664 13.8198C43.5591 17.1969 44.9004 21.2938 44.8904 25.5C44.8983 29.7059 43.5572 33.8021 41.0664 37.1802ZM68.3529 41.3408C64.997 43.8262 60.9366 45.1622 56.7694 45.152C52.6108 45.1605 48.5595 43.8244 45.213 41.3408C48.7619 36.8327 50.694 31.2513 50.6963 25.5008C50.7082 19.7479 48.7745 14.162 45.213 9.66087C48.5592 7.17652 52.6106 5.84009 56.7694 5.84883C61.105 5.84883 65.1105 7.25977 68.3529 9.66087C64.7914 14.162 62.8578 19.7479 62.8697 25.5008C62.8721 31.2513 64.8042 36.8326 68.3529 41.3408ZM72.4996 37.1802C70.0085 33.8023 68.6674 29.7059 68.6755 25.5C68.6654 21.2938 70.0068 17.1968 72.4996 13.8198C74.9929 17.1966 76.3346 21.2936 76.3245 25.5C76.3324 29.706 74.991 33.8024 72.4996 37.1802ZM99.787 41.3408C96.5446 43.7427 92.539 45.152 88.2042 45.152C83.8695 45.152 79.8895 43.7402 76.6471 41.3408C80.1963 36.8329 82.1284 31.2514 82.1303 25.5008C82.1422 19.7479 80.2086 14.162 76.6471 9.66087C79.8895 7.2606 83.8695 5.84883 88.2042 5.84883C92.539 5.84883 96.5446 7.25977 99.787 9.66087C96.2259 14.1622 94.2923 19.748 94.3038 25.5008C94.3066 31.2512 96.2386 36.8324 99.787 41.3408ZM103.935 37.1802C101.444 33.8023 100.103 29.7059 100.111 25.5C100.1 21.2936 101.442 17.1965 103.935 13.8198C106.428 17.1969 107.769 21.2938 107.759 25.5C107.767 29.7058 106.426 33.802 103.935 37.1802ZM119.652 45.1578C115.346 45.1578 111.312 43.7112 108.083 41.3408C111.631 36.8325 113.563 31.2513 113.566 25.5008C113.577 19.748 111.644 14.1622 108.083 9.66087C111.315 7.29048 115.347 5.84219 119.652 5.84219C130.452 5.84219 139.194 14.6349 139.194 25.5008C139.194 36.3651 130.452 45.1578 119.652 45.1578Z" fill="#717171"/>
</svg>
