<svg width="67" height="67" viewBox="0 0 67 67" fill="none" xmlns="http://www.w3.org/2000/svg">
<path fill-rule="evenodd" clip-rule="evenodd" d="M33.8936 66.7601C42.6982 66.7601 50.9757 63.3312 57.2017 57.1054C63.4275 50.8794 66.8564 42.6018 66.8564 33.7972C66.8564 24.9927 63.4275 16.7151 57.2017 10.4892C50.9758 4.26327 42.6982 0.834503 33.8936 0.834503C15.7178 0.834503 0.930847 15.6214 0.930847 33.7972C0.930847 42.6018 4.35962 50.8794 10.5855 57.1054C16.8115 63.3312 25.0891 66.7601 33.8936 66.7601ZM1.87265 33.7972C1.87265 25.2444 5.20347 17.2032 11.2515 11.1551C17.2996 5.10697 25.3406 1.77629 33.8937 1.77629C42.4467 1.77629 50.4879 5.10697 56.5358 11.1551C62.5838 17.2032 65.9146 25.2442 65.9146 33.7972C65.9146 51.4537 51.5501 65.8183 33.8937 65.8183C25.3406 65.8183 17.2996 62.4875 11.2515 56.4394C5.20347 50.3913 1.87265 42.3502 1.87265 33.7972ZM3.28531 33.7972C3.28531 16.893 16.9893 3.189 33.8936 3.189C50.7979 3.189 64.5019 16.893 64.5019 33.7972C64.5019 50.7015 50.7979 64.4056 33.8936 64.4056C16.9893 64.4056 3.28531 50.7015 3.28531 33.7972ZM33.8936 53.1041C23.2309 53.1041 14.5868 44.4601 14.5868 33.7973C14.5868 23.1346 23.2309 14.4905 33.8936 14.4905C44.5563 14.4905 53.2004 23.1346 53.2004 33.7973C53.2004 44.4601 44.5564 53.1041 33.8936 53.1041ZM33.8936 33.7972H15.5286C15.5286 23.6548 23.7511 15.4323 33.8936 15.4323V33.7972ZM33.8936 52.1623V33.7972H52.2586C52.2586 43.9399 44.0362 52.1623 33.8936 52.1623ZM19.7263 15.2232C19.0847 14.6013 18.0929 14.4139 17.1618 14.9895C17.3397 14.53 17.2671 14.061 17.1726 13.8022C16.7955 13.1165 16.6492 12.9948 16.3583 12.7528L16.3009 12.705C15.2307 11.8096 14.1045 12.574 13.2989 13.5312L9.407 18.156L15.5251 23.275L19.6294 18.3979C20.5672 17.2835 20.7122 16.1787 19.7263 15.2232ZM34.9644 13.0256L37.0655 7.47252V13.0256H38.6623V5.07258H36.2631L34.0921 10.7373L31.9212 5.07258H29.5221V13.0256H31.1188V7.47252L33.22 13.0256H34.9644ZM56.4336 16.3343L53.4272 20.5785L58.088 18.3721L59.3221 19.8917L51.9861 23.4376L50.5378 21.6398L53.4232 17.4328L53.4062 17.4117L48.6793 19.3513L47.2168 17.565L52.2205 11.1471L53.4546 12.6667L50.3212 16.7539L55.1097 14.704L56.4336 16.3343ZM15.3403 14.7352C14.9506 14.4188 14.3445 14.4061 14.0763 14.7155L11.7615 17.3851L13.1934 18.548L15.4821 15.9084C15.7699 15.5766 15.7689 15.0833 15.3403 14.7352ZM15.7353 20.6122L18.1484 17.8293C18.4688 17.4597 18.4225 16.8839 17.955 16.5044C17.5419 16.1688 16.9294 16.2611 16.6547 16.5779L14.2222 19.3835L15.7353 20.6122Z" fill="#4D4D4D"/>
</svg>
