<svg width="112" height="39" viewBox="0 0 150 53" fill="none" xmlns="http://www.w3.org/2000/svg">
<path d="M75.0038 0C33.5802 0 0 11.6588 0 26.0479C0 40.4348 33.5802 52.0958 75.0038 52.0958C116.424 52.0958 150 40.4348 150 26.0479C150 11.6588 116.424 0 75.0038 0ZM75.0038 49.8395C35.0359 49.8395 2.63843 39.1905 2.63843 26.0474C2.63843 12.9048 35.0354 2.25682 75.0038 2.25682C114.975 2.25682 147.368 12.9053 147.368 26.0474C147.368 39.191 114.975 49.8395 75.0038 49.8395Z" fill="#717171"/>
<path d="M121.218 17.3814C121.321 17.1991 121.215 17.0659 120.986 17.0659C119.79 17.0659 118.226 17.0697 116.985 17.0697C116.688 17.0697 116.538 17.1028 116.398 17.3814C115.939 18.2673 110.348 26.7018 109.308 28.3388C109.132 28.5882 108.916 28.5563 108.892 28.271C108.789 27.2976 107.953 26.176 106.639 25.6442C105.636 25.234 104.657 25.1602 103.641 25.2973C101.802 25.5456 100.165 26.5246 98.724 27.6241C96.5527 29.2869 94.68 31.4392 92.2643 33.0298C90.9455 33.8948 89.1373 34.6508 87.9295 33.5232C86.8337 32.5024 86.96 30.2323 88.631 28.4764C88.806 28.2953 89.0197 28.445 88.9864 28.6119C88.8273 29.4086 89.0203 30.197 89.619 30.7487C90.3512 31.4056 91.3949 31.4838 92.2895 31.0422C93.3459 30.5164 93.9654 29.4978 94.1469 28.3465C94.4268 26.5526 93.0566 24.9735 91.3425 24.8474C89.952 24.7483 88.6173 25.2362 87.3176 26.317C86.668 26.8621 86.2951 27.2613 85.7325 28.0723C85.5936 28.271 85.3826 28.2914 85.3908 27.9985C85.4547 25.7064 84.5137 24.4152 82.6301 24.3745C81.1691 24.3365 79.6091 25.1382 78.3914 26.1127C77.0584 27.1891 75.8927 28.6212 74.64 29.9636C74.4858 30.1282 74.3497 30.1205 74.3081 29.8001C74.2698 28.2793 73.8893 26.8076 73.1916 25.7625C72.9417 25.3997 72.4244 25.2196 71.9876 25.4652C71.7858 25.5753 71.0848 25.9013 70.5709 26.3164C70.3199 26.5273 70.222 26.8307 70.3314 27.2205C71.0039 29.4934 70.8568 32.0718 69.9426 34.2538C69.1049 36.2464 67.4734 38.0507 65.5542 38.6575C64.2927 39.06 62.9767 38.8629 62.1636 37.7347C61.0503 36.1765 61.4971 33.472 63.1636 31.2233C64.6328 29.2417 66.7565 27.9842 68.8748 27.1743C69.1246 27.0757 69.1766 26.9155 69.105 26.7024C68.9901 26.3522 68.807 25.8754 68.7315 25.6585C68.5379 25.1393 67.9917 25.0517 67.3268 25.1255C65.7876 25.3061 64.3994 25.8363 63.0275 26.5763C59.4363 28.5133 57.6357 32.2612 56.8451 34.2681C56.4662 35.2333 56.1403 35.8324 55.7182 36.367C55.1511 37.0839 54.4425 37.7358 53.1412 38.8854C53.0242 38.9917 52.9389 39.2103 53.0368 39.4157C53.1691 39.6921 53.8449 40.6523 54.0346 40.7393C54.2457 40.845 54.4917 40.6985 54.5918 40.6264C55.5011 40.007 56.5897 39.0231 57.1217 38.353C57.3082 38.1251 57.5001 38.222 57.6002 38.5672C58.0956 40.3566 59.3974 41.8135 61.1963 42.4225C64.4918 43.5385 67.9081 41.9214 70.4861 39.1046C72.1248 37.3118 72.7164 36.1583 73.3447 35.3765C74.4093 34.0473 76.5105 31.0752 79.0104 29.1691C79.929 28.4654 81.0154 27.9291 81.5595 28.2859C81.9975 28.5722 82.1396 29.2335 81.4348 30.5224C78.8857 35.2135 75.1326 40.7239 74.4421 42.0563C74.3179 42.2887 74.4289 42.4726 74.6695 42.4726C76.0026 42.466 77.3274 42.4693 78.5374 42.4693C78.7403 42.4599 78.8289 42.3657 78.9306 42.2226C80.8891 39.1371 82.7312 36.2018 84.7057 33.1664C84.8156 32.9897 84.9173 33.1273 84.9222 33.2027C84.9615 33.9102 85.1354 34.8716 85.5493 35.5048C86.2935 36.6742 87.3515 37.1769 88.5255 37.1857C89.4588 37.1968 89.9285 37.0536 90.9367 36.6742C91.6413 36.4078 92.3072 36.0475 92.9166 35.6028C93.2103 35.3974 93.2627 35.7437 93.2551 35.7977C92.8035 38.2462 93.3595 41.1495 95.7779 42.3498C98.6737 43.7868 101.85 41.7684 103.677 39.9464C103.857 39.7708 104.047 39.7873 104.067 40.1656C104.103 40.8654 104.418 41.6896 104.99 42.2644C106.52 43.8133 109.614 43.1999 112.714 40.7828C114.707 39.234 116.792 37.0459 118.678 34.7301C118.744 34.6398 118.799 34.4939 118.664 34.3507C118.38 34.0484 117.964 33.7032 117.679 33.4356C117.548 33.3266 117.359 33.358 117.247 33.4417C115.318 35.2884 113.582 37.3994 111.069 39.1404C110.222 39.7383 108.873 40.2179 108.266 39.392C108.03 39.0715 108.057 38.625 108.289 38.0447C109.024 36.2018 120.618 18.4286 121.218 17.3814ZM105.897 32.2849C105.921 32.4214 106.096 32.5525 106.271 32.6163C106.329 32.6406 106.365 32.6813 106.294 32.8256C105.804 33.8904 105.35 34.5021 104.732 35.4282C104.166 36.2817 103.523 36.9495 102.75 37.5899C101.58 38.5639 99.957 39.6221 98.6146 38.9091C98.0186 38.5997 97.7606 37.7595 97.7742 37.0778C97.8048 35.1645 98.6452 33.2022 100.205 31.2729C102.107 28.9136 104.211 27.6907 105.592 28.3575C107.018 29.0435 106.563 30.7091 105.925 32.0173C105.875 32.1164 105.87 32.2034 105.897 32.2849Z" fill="#717171"/>
<path d="M36.6556 43.1135C32.2332 43.1455 28.3396 40.3997 27.8915 35.6547C27.6436 33.0245 28.3843 30.6778 29.8679 28.746C31.1837 27.0247 33.4136 25.5954 35.2956 25.2451C35.9126 25.1334 36.7361 25.2063 37.0785 25.6128C37.6122 26.2376 37.4567 26.9248 36.9252 27.1971C35.4863 27.9337 33.7543 29.1963 32.8995 30.9186C32.2047 32.3222 32.0637 34.0204 33.1222 35.6339C34.9006 38.323 39.8494 38.3988 44.4519 34.1063C45.5925 33.0548 46.6118 32.0459 47.6513 30.853C49.6775 28.5248 50.3505 27.6754 53.0459 23.9258C53.08 23.8837 53.089 23.8275 53.0744 23.7995C53.0526 23.7506 53.0134 23.7366 52.9346 23.7332C51.1371 23.7832 49.5673 24.3227 48.0445 25.464C47.6054 25.7846 46.9732 25.7391 46.6969 25.3169C46.3897 24.8386 46.6096 24.216 47.1164 23.8657C49.5673 22.1557 52.247 21.8435 54.9832 21.3792C54.9815 21.3792 55.1746 21.3871 55.3295 21.1794C56.4523 19.7343 57.2998 18.4296 58.4987 16.9655C59.7054 15.4822 61.2623 14.1225 62.4534 13.0957C64.1154 11.6607 65.1812 11.1785 66.2642 10.5873C66.5501 10.4369 66.2296 10.2578 66.1406 10.2578C60.0937 9.1187 53.8095 7.64109 47.8057 9.87211C43.6452 11.4306 41.8214 14.7412 42.7014 16.9514C43.3224 18.52 45.3794 18.7743 47.3039 17.83C48.9849 16.9973 50.4109 15.7248 51.4314 14.1467C52.0171 13.2411 53.2523 13.894 52.5849 15.4682C50.8283 19.6125 47.4717 22.8995 43.3833 23.0354C39.902 23.151 37.6558 20.5826 37.6648 17.4123C37.6765 11.1594 44.6152 7.04094 51.903 6.42452C60.6811 5.69806 68.9954 8.04473 77.7092 9.10523C84.3877 9.91534 90.791 9.93218 97.502 8.38607C98.2941 8.21316 98.8536 8.72011 98.7988 9.5246C98.7333 10.6873 97.8354 11.8062 95.6267 13.0165C93.1115 14.4015 90.4839 14.8198 87.7365 14.8439C81.0932 14.8984 74.9042 12.3008 68.502 10.9051C68.5109 11.1852 68.5836 11.5215 68.3487 11.6989C64.803 14.3229 61.5969 16.9902 59.4486 20.7331C59.3776 20.8206 59.4167 20.9015 59.5415 20.8925C61.4055 20.7943 63.0838 20.7471 64.8226 20.6073C65.1258 20.582 65.137 20.5068 65.1118 20.2834C64.9591 18.9927 65.3333 17.5201 66.4645 16.5068C67.6214 15.4665 69.0715 15.3486 70.0315 16.0964C71.124 16.9514 71.0278 18.4891 70.4315 19.6423C69.8222 20.8117 68.8175 21.4348 67.8536 21.7374C67.8536 21.7374 67.6516 21.7835 67.6818 21.9687C67.7193 22.2618 69.0334 22.9938 69.1459 23.1887C69.2544 23.3722 69.2001 23.6597 68.9976 23.8792C68.8583 24.0386 68.6407 24.1896 68.3638 24.1857C68.135 24.1807 67.9996 24.1021 67.712 23.9437C67.119 23.6249 66.3856 23.0983 65.8928 22.4757C65.7266 22.2668 65.641 22.2612 65.2214 22.2848C63.3395 22.3948 60.403 22.6778 58.412 22.9287C57.932 22.9888 57.8604 23.0792 57.7603 23.2442C54.5877 28.4956 51.2009 34.1563 47.4818 37.9463C43.4919 42.0176 40.1744 43.0843 36.6556 43.1135ZM66.8846 19.7882C66.9367 20.0566 67.0396 20.1088 67.1616 20.0858C67.7652 19.9645 68.4253 19.4648 68.8181 18.8888C69.1761 18.3639 69.3422 17.6066 68.9876 17.3023C68.6715 17.0312 68.1574 17.1098 67.7753 17.4472C67.0184 18.1203 66.7884 19.0741 66.8846 19.7882Z" fill="#717171"/>
</svg>
