<svg width="69" height="56" viewBox="0 0 69 56" fill="none" xmlns="http://www.w3.org/2000/svg">
<path d="M67.9368 13.7465C67.0102 4.66709 60.9804 2.75757 55.6744 1.88601C53.0101 1.43473 48.2674 1.04267 45.2088 0.929845C42.5445 0.760611 36.2866 0.675995 34.4081 0.675995C32.5549 0.675995 26.2688 0.760611 23.6046 0.929845C20.5742 1.04267 15.8033 1.43755 13.139 1.88601C7.83582 2.78577 1.80038 4.69247 0.876618 13.7436C0.65131 16.2173 0.594983 19.4496 0.623147 22.9048C0.707637 28.6362 1.18642 32.5145 1.46805 35.2137C1.66238 37.0668 2.41998 42.6036 3.40289 45.4693C4.7491 49.404 5.98266 50.5548 7.41337 51.7366C10.0523 53.8717 14.3726 54.5459 15.271 54.7151C20.1517 55.5866 30.0287 55.7531 34.3799 55.7531C38.7284 55.7531 48.6025 55.612 53.4861 54.7151C54.4126 54.5459 58.7329 53.8971 61.3437 51.7366C62.7744 50.5548 64.008 49.404 65.3542 45.4693C66.3399 42.6036 67.1228 37.0668 67.32 35.2137C67.6016 32.5145 68.1057 28.6362 68.1621 22.9048C68.2747 19.4496 68.1902 16.2201 67.9368 13.7465ZM64.6247 28.9747C64.0924 36.2235 63.4475 40.5531 62.5209 43.698C61.707 46.4537 60.7269 48.2786 59.2399 49.6014C56.7981 51.8212 53.4297 52.2979 51.4667 52.5799C47.2028 53.2258 40.0464 53.4233 34.4081 53.4233C28.7669 53.4233 21.6106 53.1976 17.3466 52.5771C15.3836 52.2979 12.0153 51.8212 9.57351 49.6014C8.11464 48.2786 7.10639 46.4255 6.32063 43.698C5.39405 40.5813 4.7491 36.2235 4.21681 28.9747C3.90701 24.6197 3.96334 17.5373 4.44212 13.7436C5.16874 8.06868 7.97664 5.22838 13.9811 4.16221C16.7862 3.65451 20.5714 3.29065 24.1369 3.12142C26.9983 2.92398 31.741 2.83936 34.3799 2.86757C37.016 2.83936 41.7588 2.95219 44.6202 3.12142C48.211 3.29065 51.9709 3.65733 54.776 4.16221C60.8086 5.22838 63.6165 8.09688 64.3177 13.7436C64.8782 17.5373 64.9627 24.6197 64.6275 28.9747M49.9769 5.31299C48.4335 12.2544 47.8167 15.4303 46.5522 20.4594C45.3468 25.2938 44.3921 29.7616 42.7924 31.925C41.1392 34.1165 38.9481 34.596 37.461 34.7625C36.6753 34.8471 36.1148 34.8753 34.4588 34.9035C32.7774 34.9035 32.2142 34.8471 31.4284 34.7625C29.9414 34.5932 27.7249 34.1165 26.0999 31.925C24.472 29.7616 23.5454 25.2938 22.34 20.4594C21.0192 15.4585 20.4305 12.2544 18.859 5.31299C18.859 5.31299 17.3157 5.36941 16.6144 5.42582C15.6878 5.48223 14.9584 5.56684 14.1726 5.67967C14.1726 5.67967 15.0738 19.9545 15.4653 25.9962C15.8878 32.3481 16.6426 43.0803 17.3438 51.1753C17.3438 51.1753 18.6337 51.3727 20.7967 51.5138C23.0695 51.652 24.0777 51.652 24.0777 51.652C25.0043 48.084 26.1815 43.1367 27.4742 41.0297C28.5388 39.3148 30.1948 39.1202 31.1214 39.0074C32.5803 38.81 33.8138 38.7817 34.4053 38.7817C34.9657 38.7535 36.1993 38.7817 37.6863 39.0074C38.6129 39.1484 40.2689 39.3177 41.3335 41.0297C42.6544 43.1367 43.8034 48.0811 44.73 51.652C44.73 51.652 45.7383 51.6238 48.0111 51.5109C49.1673 51.4608 50.3199 51.3478 51.4639 51.1725C52.1652 43.0803 52.9228 32.3734 53.3424 25.9962C53.7367 19.9545 54.6351 5.67967 54.6351 5.67967C53.8466 5.56684 53.1199 5.48223 52.1934 5.42582C51.5456 5.36941 49.9769 5.31299 49.9769 5.31299Z" fill="#4D4D4D"/>
</svg>
