<svg width="68" height="68" viewBox="0 0 68 68" fill="none" xmlns="http://www.w3.org/2000/svg">
<path d="M49.7582 4.58976C45.085 2.1697 39.8276 0.834503 34.2365 0.834503C28.6453 0.834503 23.388 2.1697 18.7148 4.58976C8.1166 10.1809 0.856445 21.3632 0.856445 34.2145C0.856445 47.0658 8.1166 58.2482 18.7982 63.8393C23.388 66.1759 28.6453 67.5946 34.2365 67.5946C39.8276 67.5946 45.0015 66.1759 49.6747 63.7559C60.3564 58.2482 67.6165 47.0658 67.6165 34.2145C67.6165 21.3632 60.3564 10.1809 49.7582 4.58976ZM4.19445 34.2145C4.19445 23.2826 10.036 13.7693 18.7982 8.42846C23.0542 5.84151 27.9777 4.33941 33.402 4.17251L29.6467 31.4607L18.7982 39.8891L7.7828 48.4845C5.52965 44.2285 4.19445 39.3884 4.19445 34.2145ZM49.7582 59.9172C45.1684 62.671 39.9111 64.2566 34.2365 64.2566C28.5619 64.2566 23.2211 62.671 18.7148 59.9172C14.6257 57.4971 11.2877 54.1591 8.7842 50.1535L18.7148 46.0644L34.2365 39.7222L49.7582 45.981L59.7722 50.0701C57.2687 54.1591 53.7638 57.4971 49.7582 59.9172ZM49.7582 39.8891L38.9931 31.5441L35.1544 4.17251C40.4118 4.33941 45.4188 5.84151 49.6747 8.42846C58.437 13.6858 64.2785 23.2826 64.2785 34.2145C64.2785 39.3884 63.0268 44.2285 60.6902 48.4845L49.7582 39.8891Z" fill="#4C4C4C"/>
</svg>
