<svg width="87" height="68" viewBox="0 0 87 68" fill="none" xmlns="http://www.w3.org/2000/svg">
<path d="M57.3624 27.3151L62.1757 25.6539L51.0866 33.7822L46.8192 35.0433L57.3624 27.3151Z" fill="#4D4D4D"/>
<path d="M86.6607 35.8142L83.9548 37.1649L46.8192 35.0433L51.0866 33.7822L86.6607 35.8142Z" fill="#4D4D4D"/>
<path d="M83.907 39.9667L24.2039 41.9104L29.0215 40.2501L83.0758 38.4903L83.907 39.9667Z" fill="#4D4D4D"/>
<path d="M24.2039 41.9104L29.0215 40.2501L39.5783 32.5235L35.3093 33.7822L24.2039 41.9104Z" fill="#4D4D4D"/>
<path d="M39.5783 32.5235L35.3093 33.7822L0.127367 31.7501L2.83207 30.401L39.5783 32.5235Z" fill="#4D4D4D"/>
<path d="M2.88136 27.5974L3.71231 29.0738L2.83207 30.401L0.127367 31.7501L2.88136 27.5974Z" fill="#4D4D4D"/>
<path d="M2.88136 27.5974L3.71231 29.0738L57.3624 27.3151L62.1757 25.6539" fill="#4D4D4D"/>
<path d="M51.0866 33.7822L46.8192 35.0433L57.3624 27.3151" fill="#4D4D4D"/>
<path d="M86.6607 35.8142L83.9548 37.1649L46.8192 35.0433" fill="#4D4D4D"/>
<path d="M24.2039 41.9104L29.0215 40.2501L83.0758 38.4903L83.907 39.9667" fill="#4D4D4D"/>
<path d="M83.907 39.9667L83.0758 38.4903L83.9548 37.1649L86.6607 35.8142" fill="#4D4D4D"/>
<path d="M24.2039 41.9104L29.0215 40.2501L39.5783 32.5235L35.3093 33.7822" fill="#4D4D4D"/>
<path d="M3.71231 29.0738L2.83207 30.401L39.5783 32.5235L29.0218 40.2501L83.0761 38.4903L83.9551 37.1646L46.8192 35.0433L57.3627 27.3148L3.71231 29.0738Z" fill="#4D4D4D"/>
<path d="M0.127367 31.7501L2.83207 30.401L39.5783 32.5235L34.8577 33.9146" fill="#4D4D4D"/>
<path d="M75.3456 39.6257C74.4896 44.3085 72.5763 48.8717 69.5504 52.9547C58.9285 67.289 38.5596 70.3569 24.1455 59.7938C14.8413 52.9751 10.2576 42.1181 11.0334 31.4222L9.45636 32.2884C8.97812 43.16 13.7782 54.0626 23.249 61.0031C38.3585 72.0757 59.633 68.8714 70.7668 53.8459C73.8717 49.656 75.86 44.9896 76.7855 40.1984L75.3456 39.6257Z" fill="#4D4D4D"/>
<path d="M77.3639 35.2832C77.8345 24.4196 73.0337 13.5273 63.5694 6.59167C48.4608 -4.48117 27.1863 -1.27687 16.0522 13.7487C12.9547 17.9288 10.9682 22.583 10.0399 27.3626L11.4345 28.1856C12.271 23.427 14.1965 18.7859 17.2689 14.6402C27.8905 0.305786 48.2594 -2.76241 62.6732 7.80104C72.0353 14.6621 76.6183 25.6119 75.7703 36.372L77.3639 35.2832Z" fill="#4D4D4D"/>
<path d="M73.2514 39.7998C71.4211 48.7462 65.5699 56.7773 56.6892 61.0558C41.5757 68.3379 23.3222 62.0341 15.9995 47.004C13.6218 42.1239 12.6846 36.9143 13.0205 31.8549L11.0295 31.4548C10.6192 36.9341 11.609 42.587 14.1867 47.8775C21.9937 63.9021 41.4545 70.623 57.5679 62.8589C67.2266 58.2056 73.5239 49.3883 75.3383 39.6196L73.2514 39.7998Z" fill="#4D4D4D"/>
<path d="M75.7721 36.3711C76.2277 30.8203 75.2464 25.0821 72.6326 19.7176C64.8259 3.69307 45.3649 -3.02761 29.2511 4.7362C19.5238 9.42268 13.206 18.3328 11.4434 28.1847L13.4604 28.3467C15.1597 19.1805 21.0672 10.9058 30.1295 6.5393C45.2439 -0.742826 63.4971 5.56102 70.8195 20.5911C73.2581 25.5961 74.1812 30.9475 73.7707 36.1285L75.7721 36.3711Z" fill="#4D4D4D"/>
<path d="M73.7777 36.1318C73.8368 35.3615 73.8671 34.583 73.8671 33.7974C73.8671 17.0961 60.204 3.50856 43.4094 3.50856C28.482 3.50856 16.0283 14.2431 13.4439 28.3577L15.2316 27.1927C18.2413 14.4928 29.7328 5.01114 43.4094 5.01114C59.3706 5.01114 72.3562 17.9248 72.3562 33.7974C72.356 34.3643 72.3394 34.9311 72.3063 35.497L73.7777 36.1318Z" fill="#4D4D4D"/>
<path d="M71.5806 40.4301C68.5609 53.1163 57.0759 62.584 43.4094 62.584C27.4484 62.584 14.4628 49.6703 14.4628 33.7977C14.4628 33.3383 14.4739 32.8815 14.4953 32.4273L13.0141 31.8524C12.9727 32.5 12.952 33.1488 12.9519 33.7977C12.9519 50.4994 26.615 64.0866 43.4094 64.0866C58.141 64.0866 70.4631 53.6321 73.2682 39.7922L71.5806 40.4301Z" fill="#4D4D4D"/>
</svg>
