<svg width="64" height="57" viewBox="0 0 64 57" fill="none" xmlns="http://www.w3.org/2000/svg">
<path d="M21.4977 1.0065C33.2625 0.591013 45.039 1.00356 56.7831 1.7594C58.0196 1.86695 59.2722 1.85811 60.4896 2.1189C61.1483 2.27803 61.8598 2.52997 62.245 3.12964C62.5964 3.78234 62.6038 4.54407 62.6949 5.26308C62.9743 8.79476 63.0566 12.3412 63.3198 15.8728C62.8111 15.9347 62.3024 15.8566 61.7937 15.8404C52.7356 15.3704 43.6702 14.98 34.5974 14.9682C29.8986 14.9815 25.1939 14.9358 20.4994 15.1641C19.3615 15.3321 18.0735 15.7137 17.4164 16.7303C20.9684 17.3624 24.5131 18.0446 28.0637 18.6885C39.8314 20.8956 51.608 23.0541 63.3757 25.2582C63.3654 27.4948 63.3698 29.7314 63.3742 31.968C56.7567 30.8703 50.151 29.6857 43.5379 28.5527C29.3105 26.0951 15.0875 23.6036 0.855715 21.1696C0.883649 18.687 0.989505 16.2058 1.04096 13.7217C1.13065 11.7548 1.07478 9.76129 1.51879 7.8297C1.81724 6.46683 2.37005 5.09659 3.40068 4.12269C5.17965 2.35759 7.75255 1.86106 10.1475 1.61206C13.9216 1.2614 17.7119 1.14647 21.4977 1.0065ZM0.788086 24.4361C21.1713 28.205 41.5472 32.0372 61.9275 35.8282C62.3729 35.9372 62.8493 35.9461 63.2771 36.1096L63.3286 36.2275C63.2169 39.5779 63.1522 42.9313 63.0316 46.2818C62.9537 48.3489 62.7361 50.5119 61.6746 52.3329C60.5366 54.2159 58.4166 55.2576 56.3186 55.651C53.2267 56.233 50.0686 56.2713 46.937 56.4437C33.4624 57.0566 19.9598 56.7177 6.50727 55.7895C5.43253 55.7143 4.33868 55.6952 3.29482 55.3961C2.75378 55.2252 2.19509 54.9497 1.88928 54.4487C1.56142 53.7916 1.54084 53.0416 1.45998 52.3256C1.17181 48.4167 1.01891 44.5005 0.814549 40.5872C7.75402 41.0292 14.7053 41.2767 21.658 41.4315C28.371 41.5405 35.0841 41.539 41.7971 41.6053C43.2453 41.6657 44.8111 41.3887 45.9094 40.3692C46.0696 40.185 46.3298 40.0141 46.3034 39.7385C43.2776 39.2833 40.2696 38.7175 37.2497 38.2195C25.0998 36.1376 12.9439 34.0749 0.795435 31.9812C0.780733 29.4662 0.798378 26.9511 0.788086 24.4361Z" fill="#4D4D4D"/>
</svg>
