<svg width="68" height="68" viewBox="0 0 68 68" fill="none" xmlns="http://www.w3.org/2000/svg">
<path d="M33.6408 0.834707C15.2075 0.898685 0.312175 15.8965 0.375875 34.3303C0.439297 52.764 15.4373 67.6581 33.8711 67.5944C52.3048 67.5309 67.1992 52.5337 67.1355 34.0999C67.0721 15.6665 52.0747 0.771007 33.6408 0.834707ZM33.7563 6.77159C41.0871 6.77159 47.9784 9.62668 53.1615 14.8095C58.3457 19.9928 61.2 26.8841 61.2 34.2145C61.2 41.5442 58.3454 48.4357 53.1615 53.6191C47.9784 58.8018 41.0871 61.6564 33.7565 61.6564C26.4254 61.6564 19.5338 58.8018 14.3505 53.6191C9.16653 48.4357 6.31197 41.5442 6.31197 34.2145C6.31197 26.8841 9.16653 19.9928 14.3505 14.8095C19.5336 9.62668 26.4257 6.77159 33.7563 6.77159ZM34.0739 10.0918C31.697 10.0896 29.3326 10.4351 27.0558 11.1174C26.836 11.1838 26.6705 11.274 26.5545 11.3872C26.4391 11.4998 26.3759 11.6381 26.3662 11.7783C26.3467 12.059 26.5183 12.3271 26.764 12.5385C28.9259 14.388 31.8288 17.1577 33.8781 20.5919C32.7293 20.6153 31.8224 19.9797 31.0416 19.2312C28.2722 16.5955 25.3898 14.7174 23.1013 13.432C22.6874 13.2005 22.2373 13.0932 21.8023 13.343C19.2785 14.8106 17.5672 16.2 15.5633 18.5238C15.3755 18.7419 15.3274 18.9722 15.3964 19.1613C15.4656 19.3505 15.6284 19.4854 15.81 19.5819C17.9541 20.7188 21.3033 22.874 24.3943 25.6615C24.1228 25.8368 23.8001 25.9152 23.3714 25.8546C22.8771 25.7845 22.266 25.5536 21.5389 25.1725C18.7066 23.6843 15.9841 22.8287 13.9087 22.2943C13.4261 22.1705 12.8892 22.3085 12.6308 22.7569C11.2967 25.0749 10.3782 27.8418 9.94373 30.6485C9.85193 31.2465 10.265 31.7836 10.8578 31.8871C13.2642 32.3083 16.605 33.0846 19.5149 34.9812C22.4245 36.8777 24.9064 39.8866 25.6162 44.8087C25.6719 45.2032 25.5208 45.5667 25.2449 45.7776C24.9684 45.989 24.5653 46.0566 24.0777 45.8277C22.6273 45.1481 21.1784 44.4702 19.7297 43.7904C19.57 43.7167 19.3831 43.6485 19.1881 43.6485H12.3538C11.8305 43.6485 11.4369 43.9061 11.2745 44.2736C11.1126 44.641 11.1849 45.1067 11.5254 45.4966C13.1644 47.384 14.6673 49.4204 15.9524 51.5779C16.0795 51.7921 16.2723 51.9006 16.5213 51.9006H19.5046C19.7202 51.9024 19.9321 51.8445 20.1169 51.7334C21.0543 51.1835 21.9917 50.6352 22.9317 50.0858C23.0757 49.9996 23.2193 50.0001 23.4234 50.0001H45.9119C46.0376 50.0001 46.1461 50.0408 46.221 50.1064C46.2961 50.1718 46.3411 50.2599 46.3411 50.3793V51.4858C46.3411 51.9587 46.7676 52.3209 47.234 52.2486C50.0218 51.8022 52.6122 50.5303 54.6697 48.5971C54.7577 48.5148 54.8279 48.4153 54.8758 48.3047C54.9238 48.1942 54.9486 48.075 54.9486 47.9545C54.9486 47.834 54.9238 47.7148 54.8758 47.6043C54.8279 47.4938 54.7577 47.3943 54.6697 47.312C52.6125 45.378 50.0224 44.1057 47.2343 43.6596C46.7676 43.5873 46.3411 43.9506 46.3411 44.4232V45.4349C46.3411 45.5553 46.2913 45.6944 46.2126 45.796C46.1336 45.8978 46.0335 45.959 45.9269 45.959C45.7061 45.959 45.4885 45.9645 45.2727 45.959C44.9322 45.9534 44.7508 45.7587 44.6488 45.4777C44.5467 45.1971 44.5494 44.8349 44.6204 44.5793C46.2788 38.6321 46.686 35.017 46.6666 32.3809C46.646 29.5909 46.5748 26.7925 45.3127 23.0985C44.1027 19.5622 42.9775 16.0598 37.1165 10.7527C36.7037 10.3813 36.2687 10.1927 35.7123 10.1524C35.1671 10.112 34.6206 10.0918 34.0739 10.0918ZM38.3238 37.0863C40.062 37.0863 41.4732 38.4975 41.4732 40.2357C41.4732 41.9703 40.062 43.3823 38.3238 43.3823C36.5863 43.3823 35.1783 41.9703 35.1783 40.2357C35.1783 38.4977 36.5866 37.0863 38.3238 37.0863Z" fill="#4D4D4D"/>
</svg>
