<svg width="92" height="61" viewBox="0 0 92 61" fill="none" xmlns="http://www.w3.org/2000/svg">
<path fill-rule="evenodd" clip-rule="evenodd" d="M43.1575 57.1988C38.3456 54.1699 34.7989 43.7177 34.7989 31.2963C34.7989 30.8405 34.8008 30.3905 34.8123 29.9424L34.8161 29.9482C21.4294 27.8347 11.7577 22.0442 11.5089 15.194L11.4706 15.2748C8.19573 19.3653 6.32572 24.0942 6.32572 29.1328C6.32572 43.9601 22.5242 56.1084 43.0713 57.1834L43.1575 57.1988ZM0.135742 30.2136C0.135742 13.6247 20.6848 0.172516 46.0323 0.172516C71.3818 0.172516 91.9308 13.6247 91.9308 30.2136C91.9308 46.8043 71.3818 60.2566 46.0323 60.2566C20.6848 60.2566 0.135742 46.8043 0.135742 30.2136ZM46.0342 4.50723C50.9284 4.50723 55.0914 11.967 56.6342 22.3749L56.638 22.3576C66.1603 20.8691 72.825 17.4344 72.825 13.4363C72.825 8.07269 60.8297 3.72837 46.0342 3.72837C31.2407 3.72837 19.2454 8.07269 19.2454 13.4363C19.2454 17.4344 25.9101 20.8672 35.4305 22.3576L35.4362 22.3749C36.979 11.967 41.142 4.50723 46.0342 4.50723ZM48.9972 57.1815C69.5443 56.1065 85.7447 43.9581 85.7447 29.1309C85.7447 24.0923 83.8727 19.3633 80.5998 15.2729L80.5596 15.1921C80.3127 22.0422 70.641 27.8328 57.2524 29.9463L57.2581 29.9405C57.2677 30.3886 57.2715 30.8386 57.2715 31.2944C57.2715 43.7158 53.7229 54.168 48.9129 57.1969L48.9972 57.1815ZM46.0342 23.1461C48.1586 23.1487 50.282 23.0575 52.3984 22.873L52.3965 22.8749C51.3821 16.2056 48.9168 11.4958 46.0362 11.4958C43.1555 11.4958 40.6922 16.2056 39.6758 22.8749L39.6739 22.873C41.7891 23.0566 43.9112 23.1477 46.0342 23.1461ZM46.0342 47.8505C49.7188 47.8505 52.7257 40.1465 52.8846 30.4867L52.9037 30.4924C48.3344 30.9154 43.736 30.9154 39.1667 30.4924L39.1858 30.4867C39.3447 40.1465 42.3497 47.8505 46.0342 47.8505Z" fill="#4D4D4D"/>
</svg>
