<svg width="66" height="66" viewBox="0 0 66 66" fill="none" xmlns="http://www.w3.org/2000/svg">
<path fill-rule="evenodd" clip-rule="evenodd" d="M32.7566 0.669006C14.782 0.669006 0.21106 15.2406 0.21106 33.2145C0.21106 51.1888 14.7823 65.7601 32.7566 65.7601C50.7302 65.7601 65.3021 51.1888 65.3021 33.2145C65.3021 15.241 50.7302 0.669006 32.7566 0.669006ZM32.7566 62.8421C16.3935 62.8421 3.12907 49.5776 3.12907 33.2145C3.12907 16.8522 16.3935 3.58736 32.7566 3.58736C49.119 3.58736 62.3841 16.8522 62.3841 33.2145C62.3841 49.5776 49.119 62.8421 32.7566 62.8421Z" fill="#4D4D4D"/>
<path fill-rule="evenodd" clip-rule="evenodd" d="M26.0806 10.8075C28.2505 10.1693 30.4998 9.84641 32.7604 9.84853C35.0766 9.84853 37.3159 10.1827 39.4326 10.8057L32.7604 25.704L26.0806 10.8075Z" fill="#4D4D4D"/>
<path fill-rule="evenodd" clip-rule="evenodd" d="M44.8622 14.021C47.2927 15.5684 49.4133 17.5538 51.1156 19.8758L40.4712 43.3826L36.3637 34.268H28.5812L24.474 43.3822L13.8449 19.8539C15.544 17.5411 17.6588 15.5634 20.0816 14.0214L28.5812 32.8386H36.3902L44.8622 14.021ZM10.171 27.4971C9.65139 29.4418 9.38903 31.446 9.39058 33.4586C9.39058 42.4856 14.593 50.2991 22.169 54.0771L10.171 27.4971Z" fill="#4D4D4D"/>
<path fill-rule="evenodd" clip-rule="evenodd" d="M26.0806 55.6797C28.1972 56.2794 30.3887 56.5826 32.5907 56.5806C34.8466 56.5806 37.028 56.2667 39.0929 55.6821L32.5907 41.4192L26.0806 55.6797ZM43.0943 54.1427C50.8186 50.3305 56.1226 42.4463 56.1226 33.3376C56.1226 31.2757 55.8507 29.2765 55.3412 27.373L43.0943 54.1427Z" fill="#4D4D4D"/>
</svg>
