<svg width="199" height="39" viewBox="0 0 199 39" fill="none" xmlns="http://www.w3.org/2000/svg">
<path d="M32.254 25.4268C32.254 24.2561 32.4827 23.3049 32.9401 22.5732C33.3975 21.8415 33.9994 21.2317 34.7457 20.7439C35.4679 20.2805 36.3828 19.878 37.4902 19.5366C38.5976 19.1951 40.1264 18.8293 42.0764 18.439C43.7376 18.0976 44.8089 17.7439 45.2904 17.378C45.796 16.9878 46.0487 16.4878 46.0487 15.878C46.0487 15.2195 45.7719 14.6585 45.2182 14.1951C44.6644 13.7317 43.7376 13.5 42.4375 13.5C41.1375 13.5 40.0782 13.8415 39.2597 14.5244C38.4412 15.2073 37.8513 16.1341 37.4902 17.3049L32.7234 15.9146C33.566 13.6707 34.8781 12.0122 36.6596 10.939C38.4412 9.86585 40.4514 9.32927 42.6903 9.32927C45.1941 9.32927 47.2164 9.96341 48.7571 11.2317C50.2979 12.5 51.0683 14.439 51.0683 17.0488V24.0732C51.0683 25.0244 51.2127 25.6707 51.5016 26.0122C51.7905 26.3537 52.272 26.5244 52.9461 26.5244C53.2109 26.5244 53.4637 26.5 53.7045 26.4512C53.9452 26.378 54.1619 26.3049 54.3545 26.2317V29.6707C53.9934 29.9146 53.5119 30.122 52.91 30.2927C52.3081 30.4878 51.6341 30.5854 50.8877 30.5854C49.2747 30.5854 48.0951 30.2073 47.3488 29.4512C46.6025 28.6951 46.1812 27.5244 46.0849 25.939C45.4589 27.4024 44.4839 28.5488 43.1598 29.378C41.8598 30.1829 40.3551 30.5854 38.6458 30.5854C36.6957 30.5854 35.1429 30.1341 33.9874 29.2317C32.8318 28.3049 32.254 27.0366 32.254 25.4268ZM46.1932 21.1098V19.8659C45.9524 20.1585 45.5311 20.4146 44.9293 20.6341C44.3515 20.8537 43.5329 21.0854 42.4737 21.3293C40.7162 21.7195 39.4523 22.1219 38.6819 22.5366C37.9356 22.9512 37.5624 23.5976 37.5624 24.4756C37.5624 25.2317 37.8273 25.7927 38.3569 26.1585C38.8865 26.5 39.669 26.6707 40.7042 26.6707C41.1134 26.6707 41.4986 26.6341 41.8598 26.561C42.2209 26.4878 42.5579 26.378 42.8709 26.2317C43.1839 26.0854 43.4728 25.9146 43.7376 25.7195C44.0024 25.5244 44.2431 25.3171 44.4598 25.0976C44.7006 24.8537 44.9052 24.6098 45.0737 24.3659C45.2663 24.0976 45.4228 23.8293 45.5432 23.561C45.6876 23.2683 45.808 22.9878 45.9043 22.7195C46.0006 22.4268 46.0728 22.1463 46.121 21.878C46.1691 21.6098 46.1932 21.3537 46.1932 21.1098Z" fill="white"/>
<path d="M57.428 1.09756H62.7003V17.7805H64.9392L71.4755 9.73171H77.6145L69.3088 19.7561L77.7229 30.2195H71.4394L64.867 21.7683H62.7003V30.2195H57.428V1.09756Z" fill="white"/>
<path d="M79.7728 3.40244C79.7728 2.40244 80.0496 1.58537 80.6033 0.95122C81.1811 0.317073 82.0117 0 83.0951 0C84.1303 0 84.9368 0.317073 85.5146 0.95122C86.0924 1.58537 86.3813 2.40244 86.3813 3.40244C86.3813 4.37805 86.0924 5.17073 85.5146 5.78049C84.9368 6.39024 84.1303 6.69512 83.0951 6.69512C82.0117 6.69512 81.1811 6.39024 80.6033 5.78049C80.0496 5.17073 79.7728 4.37805 79.7728 3.40244ZM80.3145 9.73171H85.6229V30.2195H80.3145V9.73171Z" fill="white"/>
<path d="M96.2026 1.09756V30.2195H90.9302V1.09756H96.2026Z" fill="white"/>
<path d="M106.818 1.09756V30.2195H101.545V1.09756H106.818Z" fill="white"/>
<path d="M111.582 3.40244C111.582 2.40244 111.859 1.58537 112.413 0.95122C112.991 0.317073 113.821 0 114.905 0C115.94 0 116.746 0.317073 117.324 0.95122C117.902 1.58537 118.191 2.40244 118.191 3.40244C118.191 4.37805 117.902 5.17073 117.324 5.78049C116.746 6.39024 115.94 6.69512 114.905 6.69512C113.821 6.69512 112.991 6.39024 112.413 5.78049C111.859 5.17073 111.582 4.37805 111.582 3.40244ZM112.124 9.73171H117.432V30.2195H112.124V9.73171Z" fill="white"/>
<path d="M132.093 30.5854C131.25 30.5854 130.456 30.5122 129.709 30.3659C128.963 30.2439 128.265 30.061 127.615 29.8171C126.965 29.5488 126.363 29.2317 125.809 28.8659C125.256 28.5 124.75 28.0854 124.293 27.6219C123.859 27.1341 123.474 26.6098 123.137 26.0488C122.8 25.4878 122.511 24.8902 122.27 24.2561C122.054 23.5976 121.885 22.9146 121.765 22.2073C121.644 21.5 121.584 20.7561 121.584 19.9756C121.584 19.2195 121.644 18.4878 121.765 17.7805C121.885 17.0488 122.066 16.3659 122.306 15.7317C122.547 15.0976 122.836 14.5 123.173 13.939C123.51 13.3537 123.907 12.8293 124.365 12.3659C124.822 11.878 125.328 11.4512 125.882 11.0854C126.435 10.7195 127.037 10.4024 127.687 10.1341C128.337 9.86585 129.023 9.67073 129.745 9.54878C130.492 9.40244 131.274 9.32927 132.093 9.32927C132.935 9.32927 133.73 9.40244 134.476 9.54878C135.222 9.67073 135.921 9.86585 136.571 10.1341C137.221 10.4024 137.823 10.7317 138.376 11.122C138.93 11.4878 139.423 11.9146 139.857 12.4024C140.314 12.8902 140.711 13.4146 141.049 13.9756C141.386 14.5366 141.662 15.1463 141.879 15.8049C142.12 16.439 142.3 17.1098 142.421 17.8171C142.541 18.5 142.601 19.2195 142.601 19.9756C142.601 20.6341 142.553 21.2805 142.457 21.9146C142.361 22.5488 142.216 23.1585 142.024 23.7439C141.831 24.3293 141.59 24.8902 141.301 25.4268C141.036 25.939 140.724 26.4268 140.362 26.8902C140.001 27.3293 139.592 27.7439 139.135 28.1341C138.701 28.5244 138.22 28.878 137.69 29.1951C137.185 29.4878 136.631 29.7439 136.029 29.9634C135.451 30.1585 134.825 30.3049 134.151 30.4024C133.501 30.5244 132.815 30.5854 132.093 30.5854ZM132.093 26.0854C133.922 26.0854 135.235 25.5244 136.029 24.4024C136.823 23.2561 137.221 21.7805 137.221 19.9756C137.221 18.1463 136.823 16.6585 136.029 15.5122C135.235 14.3415 133.922 13.7561 132.093 13.7561C130.311 13.7561 129.011 14.3415 128.193 15.5122C127.374 16.6829 126.965 18.1707 126.965 19.9756C126.965 21.8049 127.35 23.2805 128.12 24.4024C128.891 25.5244 130.215 26.0854 132.093 26.0854Z" fill="white"/>
<path d="M153.327 9.87805C154.531 9.87805 155.614 10.1219 156.577 10.6098C157.54 11.0976 158.359 11.8293 159.033 12.8049H159.177L159.611 10.2439H164.161V30.2561C164.161 32.1585 163.788 33.7561 163.041 35.0488C162.319 36.3415 161.224 37.3171 159.755 37.9756C158.287 38.6585 156.469 39 154.302 39C152.906 39 151.606 38.9146 150.402 38.7439C149.222 38.5732 148.067 38.2683 146.935 37.8293V33.4756C147.754 33.8171 148.572 34.0976 149.391 34.3171C150.234 34.561 151.088 34.7317 151.955 34.8293C152.846 34.9512 153.736 35.0122 154.627 35.0122C156.024 35.0122 157.059 34.6341 157.733 33.878C158.431 33.1219 158.78 31.9878 158.78 30.4756V30.0732C158.78 29.6585 158.792 29.2317 158.816 28.7927C158.864 28.3537 158.9 27.9634 158.925 27.6219H158.78C158.106 28.6707 157.299 29.4268 156.361 29.8902C155.422 30.3537 154.362 30.5854 153.183 30.5854C150.847 30.5854 149.018 29.6829 147.694 27.878C146.394 26.0488 145.744 23.5122 145.744 20.2683C145.744 18.0732 146.045 16.2073 146.646 14.6707C147.248 13.1098 148.115 11.9268 149.246 11.122C150.402 10.2927 151.762 9.87805 153.327 9.87805ZM155.024 14.3049C154.182 14.3049 153.472 14.5366 152.894 15C152.34 15.439 151.919 16.1098 151.63 17.0122C151.365 17.8902 151.233 19 151.233 20.3415C151.233 22.3415 151.546 23.8415 152.172 24.8415C152.798 25.8171 153.773 26.3049 155.097 26.3049C155.795 26.3049 156.397 26.2195 156.902 26.0488C157.408 25.8537 157.817 25.5488 158.13 25.1341C158.467 24.6951 158.72 24.1341 158.888 23.4512C159.057 22.7683 159.141 21.939 159.141 20.9634V20.3049C159.141 18.8659 158.997 17.7073 158.708 16.8293C158.419 15.9512 157.974 15.3171 157.372 14.9268C156.77 14.5122 155.987 14.3049 155.024 14.3049ZM162.391 2.0122C162.319 3.18293 161.97 4.23171 161.344 5.15854C160.742 6.06098 159.936 6.76829 158.925 7.28049C157.913 7.79268 156.734 8.04878 155.386 8.04878C153.315 8.04878 151.678 7.5 150.474 6.40244C149.271 5.30488 148.621 3.84146 148.524 2.0122H151.522C151.594 2.69512 151.798 3.19512 152.135 3.5122C152.497 3.82927 152.966 4.03659 153.544 4.13415C154.122 4.20732 154.748 4.2439 155.422 4.2439C155.999 4.2439 156.565 4.19512 157.119 4.09756C157.697 3.97561 158.19 3.7561 158.599 3.43902C159.009 3.12195 159.25 2.64634 159.322 2.0122H162.391Z" fill="white"/>
<path d="M174.915 1.09756V30.2195H169.643V1.09756H174.915Z" fill="white"/>
<path d="M199 9.73171V30.2195H193.764V25.6098C193.09 27.2683 192.163 28.5244 190.983 29.378C189.828 30.2073 188.528 30.6219 187.083 30.6219C184.748 30.6219 182.966 29.878 181.738 28.3902C180.535 26.9024 179.933 24.939 179.933 22.5V9.73171H185.205V21C185.205 22.6341 185.518 23.9024 186.144 24.8049C186.77 25.7073 187.841 26.1585 189.358 26.1585C190.779 26.1585 191.862 25.5732 192.608 24.4024C193.355 23.2317 193.728 21.7317 193.728 19.9024V9.73171H199Z" fill="white"/>
<path d="M0 30.9817H12.1051L8.69964 26.3138C7.76481 26.5238 5.443 26.3367 3.63439 23.9083C1.82578 21.4798 2.8808 18.6963 3.63439 17.608L6.03824 20.8441C6.36257 21.1973 7.25733 21.6917 8.24176 20.8441C9.2262 19.9964 9.14798 19.1736 8.98581 18.8681L6.6392 15.5175C7.66942 15.1739 10.2278 15.0135 12.2196 17.1212C14.2113 19.2289 13.66 21.9896 13.1353 23.1064L18.7443 30.9817H28.5886L16.97 14.057L28.2166 1.2561H18.4295L8.24176 13.3411V1.2561H0V30.9817Z" fill="#FF0040"/>
</svg>
