<svg width="138" height="27" viewBox="0 0 138 27" fill="none" xmlns="http://www.w3.org/2000/svg">
<path d="M22.3671 17.6032C22.3671 16.7927 22.5257 16.1341 22.8429 15.6276C23.1601 15.121 23.5775 14.6989 24.095 14.3612C24.5959 14.0403 25.2303 13.7617 25.9983 13.5253C26.7662 13.2889 27.8264 13.0356 29.1786 12.7655C30.3306 12.5291 31.0735 12.2842 31.4074 12.031C31.758 11.7608 31.9333 11.4146 31.9333 10.9925C31.9333 10.5366 31.7413 10.1482 31.3573 9.82739C30.9734 9.50657 30.3306 9.34615 29.4291 9.34615C28.5275 9.34615 27.793 9.58255 27.2253 10.0553C26.6577 10.5281 26.2487 11.1698 25.9983 11.9803L22.6926 11.0178C23.277 9.46435 24.1868 8.31613 25.4223 7.57317C26.6577 6.83021 28.0517 6.45872 29.6044 6.45872C31.3406 6.45872 32.743 6.89775 33.8115 7.7758C34.88 8.65385 35.4142 9.99625 35.4142 11.803V16.666C35.4142 17.3246 35.5144 17.772 35.7147 18.0084C35.9151 18.2448 36.249 18.363 36.7164 18.363C36.9001 18.363 37.0754 18.3462 37.2423 18.3124C37.4093 18.2617 37.5595 18.2111 37.6931 18.1604V20.5413C37.4427 20.7101 37.1088 20.8537 36.6914 20.9719C36.274 21.1069 35.8065 21.1745 35.289 21.1745C34.1704 21.1745 33.3524 20.9128 32.8348 20.3893C32.3173 19.8659 32.0251 19.0553 31.9584 17.9578C31.5243 18.9709 30.8481 19.7645 29.9299 20.3386C29.0284 20.8959 27.985 21.1745 26.7996 21.1745C25.4473 21.1745 24.3705 20.8621 23.5691 20.2373C22.7678 19.5957 22.3671 18.7176 22.3671 17.6032ZM32.0335 14.6144V13.7533C31.8665 13.9559 31.5744 14.1332 31.157 14.2852C30.7563 14.4371 30.1887 14.5976 29.4541 14.7664C28.2354 15.0366 27.3589 15.3152 26.8247 15.6023C26.3071 15.8893 26.0483 16.3368 26.0483 16.9447C26.0483 17.4681 26.232 17.8565 26.5993 18.1098C26.9666 18.3462 27.5091 18.4644 28.227 18.4644C28.5108 18.4644 28.778 18.439 29.0284 18.3884C29.2788 18.3377 29.5125 18.2617 29.7296 18.1604C29.9466 18.0591 30.147 17.9409 30.3306 17.8058C30.5142 17.6707 30.6812 17.5272 30.8314 17.3752C30.9984 17.2064 31.1403 17.0375 31.2572 16.8687C31.3907 16.6829 31.4992 16.4972 31.5827 16.3114C31.6829 16.1088 31.7664 15.9146 31.8331 15.7289C31.8999 15.5263 31.95 15.3321 31.9834 15.1463C32.0168 14.9606 32.0335 14.7833 32.0335 14.6144Z" fill="#313131"/>
<path d="M39.8244 0.759849H43.4806V12.3096H45.0333L49.5659 6.73734H53.8232L48.0634 13.6773L53.8983 20.9212H49.5409L44.9832 15.0704H43.4806V20.9212H39.8244V0.759849Z" fill="#313131"/>
<path d="M55.3198 2.35553C55.3198 1.66323 55.5118 1.09756 55.8958 0.658537C56.2965 0.219512 56.8725 0 57.6237 0C58.3416 0 58.9009 0.219512 59.3016 0.658537C59.7023 1.09756 59.9026 1.66323 59.9026 2.35553C59.9026 3.03096 59.7023 3.57974 59.3016 4.00188C58.9009 4.42402 58.3416 4.63508 57.6237 4.63508C56.8725 4.63508 56.2965 4.42402 55.8958 4.00188C55.5118 3.57974 55.3198 3.03096 55.3198 2.35553ZM55.6955 6.73734H59.3767V20.9212H55.6955V6.73734Z" fill="#313131"/>
<path d="M66.7134 0.759849V20.9212H63.0572V0.759849H66.7134Z" fill="#313131"/>
<path d="M74.0745 0.759849V20.9212H70.4183V0.759849H74.0745Z" fill="#313131"/>
<path d="M77.3787 2.35553C77.3787 1.66323 77.5707 1.09756 77.9547 0.658537C78.3554 0.219512 78.9313 0 79.6826 0C80.4005 0 80.9598 0.219512 81.3605 0.658537C81.7611 1.09756 81.9615 1.66323 81.9615 2.35553C81.9615 3.03096 81.7611 3.57974 81.3605 4.00188C80.9598 4.42402 80.4005 4.63508 79.6826 4.63508C78.9313 4.63508 78.3554 4.42402 77.9547 4.00188C77.5707 3.57974 77.3787 3.03096 77.3787 2.35553ZM77.7543 6.73734H81.4356V20.9212H77.7543V6.73734Z" fill="#313131"/>
<path d="M91.602 21.1745C91.0177 21.1745 90.4668 21.1238 89.9492 21.0225C89.4317 20.9381 88.9475 20.8114 88.4968 20.6426C88.046 20.4568 87.6286 20.2373 87.2447 19.9841C86.8607 19.7308 86.5101 19.4437 86.1929 19.1229C85.8924 18.7852 85.6252 18.4221 85.3915 18.0338C85.1578 17.6454 84.9574 17.2317 84.7905 16.7927C84.6402 16.3368 84.5234 15.864 84.4399 15.3743C84.3564 14.8846 84.3147 14.3696 84.3147 13.8293C84.3147 13.3058 84.3564 12.7992 84.4399 12.3096C84.5234 11.803 84.6486 11.3302 84.8155 10.8912C84.9825 10.4522 85.1828 10.0385 85.4166 9.65009C85.6503 9.24484 85.9258 8.8818 86.243 8.56097C86.5602 8.22326 86.9108 7.92777 87.2947 7.67448C87.6787 7.4212 88.0961 7.20169 88.5469 7.01595C88.9976 6.83021 89.4734 6.69512 89.9743 6.61069C90.4918 6.50938 91.0344 6.45872 91.602 6.45872C92.1864 6.45872 92.7373 6.50938 93.2548 6.61069C93.7724 6.69512 94.2565 6.83021 94.7073 7.01595C95.1581 7.20169 95.5754 7.42964 95.9594 7.69981C96.3434 7.9531 96.6857 8.24859 96.9862 8.5863C97.3034 8.92402 97.5788 9.28705 97.8126 9.67542C98.0463 10.0638 98.2383 10.4859 98.3885 10.9418C98.5555 11.3809 98.6807 11.8452 98.7642 12.3349C98.8477 12.8077 98.8894 13.3058 98.8894 13.8293C98.8894 14.2852 98.856 14.7326 98.7892 15.1717C98.7224 15.6107 98.6223 16.0328 98.4887 16.4381C98.3552 16.8433 98.1882 17.2317 97.9879 17.6032C97.8042 17.9578 97.5872 18.2955 97.3368 18.6163C97.0863 18.9203 96.8025 19.2073 96.4853 19.4775C96.1848 19.7477 95.8509 19.9925 95.4836 20.212C95.133 20.4146 94.749 20.5919 94.3317 20.7439C93.931 20.879 93.4969 20.9803 93.0295 21.0478C92.5787 21.1323 92.1029 21.1745 91.602 21.1745ZM91.602 18.0591C92.8709 18.0591 93.7807 17.6707 94.3317 16.894C94.8826 16.1004 95.1581 15.0788 95.1581 13.8293C95.1581 12.5629 94.8826 11.5328 94.3317 10.7392C93.7807 9.92871 92.8709 9.52345 91.602 9.52345C90.3666 9.52345 89.4651 9.92871 88.8975 10.7392C88.3298 11.5497 88.046 12.5797 88.046 13.8293C88.046 15.0957 88.3131 16.1173 88.8474 16.894C89.3816 17.6707 90.2998 18.0591 91.602 18.0591Z" fill="#313131"/>
<path d="M106.327 6.83865C107.162 6.83865 107.913 7.0075 108.581 7.34522C109.249 7.68293 109.817 8.18949 110.284 8.86492H110.384L110.685 7.09193H113.84V20.9465C113.84 22.2636 113.581 23.3696 113.064 24.2645C112.563 25.1595 111.803 25.8349 110.785 26.2908C109.767 26.7636 108.506 27 107.004 27C106.035 27 105.134 26.9409 104.299 26.8227C103.481 26.7045 102.68 26.4934 101.895 26.1895V23.1754C102.463 23.4118 103.03 23.606 103.598 23.758C104.182 23.9268 104.775 24.045 105.376 24.1126C105.993 24.197 106.611 24.2392 107.229 24.2392C108.197 24.2392 108.915 23.9775 109.383 23.454C109.867 22.9306 110.109 22.1454 110.109 21.0985V20.8199C110.109 20.5328 110.117 20.2373 110.134 19.9334C110.167 19.6295 110.192 19.3593 110.209 19.1229H110.109C109.641 19.849 109.082 20.3724 108.431 20.6932C107.78 21.0141 107.045 21.1745 106.227 21.1745C104.608 21.1745 103.339 20.5497 102.421 19.3002C101.519 18.0338 101.068 16.2777 101.068 14.0319C101.068 12.5122 101.277 11.2205 101.695 10.1567C102.112 9.07598 102.713 8.25704 103.498 7.69981C104.299 7.1257 105.242 6.83865 106.327 6.83865ZM107.504 9.90338C106.92 9.90338 106.428 10.0638 106.027 10.3846C105.643 10.6886 105.351 11.1529 105.15 11.7777C104.967 12.3856 104.875 13.1538 104.875 14.0826C104.875 15.4672 105.092 16.5056 105.526 17.1979C105.96 17.8734 106.636 18.2111 107.554 18.2111C108.039 18.2111 108.456 18.152 108.807 18.0338C109.157 17.8987 109.441 17.6876 109.658 17.4006C109.892 17.0966 110.067 16.7083 110.184 16.2355C110.301 15.7627 110.359 15.1886 110.359 14.5131V14.0572C110.359 13.061 110.259 12.2589 110.059 11.651C109.858 11.0432 109.55 10.6041 109.132 10.334C108.715 10.0469 108.172 9.90338 107.504 9.90338ZM112.613 1.39306C112.563 2.20356 112.321 2.92964 111.887 3.57129C111.469 4.19606 110.91 4.68574 110.209 5.04034C109.508 5.39493 108.69 5.57223 107.755 5.57223C106.319 5.57223 105.184 5.19231 104.349 4.43246C103.514 3.67261 103.064 2.65947 102.997 1.39306H105.075C105.125 1.86585 105.267 2.21201 105.501 2.43152C105.751 2.65103 106.077 2.79456 106.478 2.8621C106.878 2.91276 107.312 2.93809 107.78 2.93809C108.181 2.93809 108.573 2.90431 108.957 2.83677C109.358 2.75234 109.7 2.60037 109.984 2.38086C110.267 2.16135 110.434 1.83208 110.484 1.39306H112.613Z" fill="#313131"/>
<path d="M121.298 0.759849V20.9212H117.642V0.759849H121.298Z" fill="#313131"/>
<path d="M138 6.73734V20.9212H134.369V17.7298C133.901 18.878 133.259 19.7477 132.441 20.3386C131.639 20.9128 130.738 21.1998 129.736 21.1998C128.117 21.1998 126.881 20.6848 126.03 19.6548C125.195 18.6248 124.778 17.2655 124.778 15.5769V6.73734H128.434V14.5385C128.434 15.6698 128.651 16.5478 129.085 17.1726C129.519 17.7974 130.262 18.1098 131.314 18.1098C132.299 18.1098 133.05 17.7045 133.568 16.894C134.085 16.0835 134.344 15.045 134.344 13.7786V6.73734H138Z" fill="#313131"/>
<path d="M1.52588e-05 21.4489H8.3945L6.03293 18.2173C5.38466 18.3626 3.77456 18.2331 2.52035 16.5519C1.26613 14.8706 1.99776 12.9436 2.52035 12.1902L4.18734 14.4305C4.41225 14.675 5.03274 15.0174 5.71541 14.4305C6.39808 13.8437 6.34384 13.274 6.23138 13.0625L4.60408 10.7429C5.31851 10.505 7.09266 10.394 8.47388 11.8531C9.8551 13.3123 9.47275 15.2235 9.10892 15.9968L12.9986 21.4489H19.8253L11.7682 9.73178L19.5673 0.869607H12.7803L5.71541 9.23613V0.869607H1.52588e-05V21.4489Z" fill="#FF0040"/>
</svg>